<svg id="Layer_1" xmlns="http://www.w3.org/2000/svg" width="757.6" height="356.9" viewBox="0 0 757.6 356.9"><style>.st0{fill:none;stroke:#404040;stroke-width:4;stroke-linecap:round;stroke-linejoin:round;stroke-miterlimit:10;} .st1{fill:#FFFFFF;stroke:#404040;stroke-width:4;stroke-linecap:round;stroke-linejoin:round;stroke-miterlimit:10;} .st2{fill:#59AFE1;stroke:#404040;stroke-width:4;stroke-linejoin:round;stroke-miterlimit:10;} .st3{fill:#B18BE8;stroke:#404040;stroke-width:4;stroke-linecap:round;stroke-linejoin:round;stroke-miterlimit:10;} .st4{fill:#404040;} .st5{fill:#4ED1A1;stroke:#404040;stroke-width:4;stroke-linecap:round;stroke-linejoin:round;stroke-miterlimit:10;} .st6{fill:#B3E3FF;stroke:#404040;stroke-width:4;stroke-linejoin:round;stroke-miterlimit:10;}</style><g id="git_x5F_fetch"><path class="st0" d="M713.6,136.9h-41.3 M713.6,218.9H483.8 M558.6,177.9c0,22.6-18.4,41-41,41H373.8 M558.6,177.9 c0-22.6,18.4-41,41-41h30.7 M287.1,260c0,22.6-18.4,41-41,41H44 M287.1,260c0-22.6,18.4-41,41-41h30.7"/><path class="st1" d="M482,239.9h-38c-1.1,0-2-0.9-2-2v-38c0-1.1,0.9-2,2-2h38c1.1,0,2,0.9,2,2v38C484,239.1,483.1,239.9,482,239.9z M670.3,239.9h-38c-1.1,0-2-0.9-2-2v-38c0-1.1,0.9-2,2-2h38c1.1,0,2,0.9,2,2v38C672.3,239.1,671.4,239.9,670.3,239.9z M753.6,239.9 h-38c-1.1,0-2-0.9-2-2v-38c0-1.1,0.9-2,2-2h38c1.1,0,2,0.9,2,2v38C755.6,239.1,754.7,239.9,753.6,239.9z M398.8,239.9h-38 c-1.1,0-2-0.9-2-2v-38c0-1.1,0.9-2,2-2h38c1.1,0,2,0.9,2,2v38C400.8,239.1,399.9,239.9,398.8,239.9z M753.6,157.9h-38 c-1.1,0-2-0.9-2-2v-38c0-1.1,0.9-2,2-2h38c1.1,0,2,0.9,2,2v38C755.6,157.1,754.7,157.9,753.6,157.9z M670.3,157.9h-38 c-1.1,0-2-0.9-2-2v-38c0-1.1,0.9-2,2-2h38c1.1,0,2,0.9,2,2v38C672.3,157.1,671.4,157.9,670.3,157.9z"/><circle class="st2" cx="189.5" cy="301" r="21"/><circle class="st1" cx="106.3" cy="301" r="21"/><circle class="st1" cx="23" cy="301" r="21"/><path class="st3" d="M595.1,2.1h160.2v50H595.1V2.1z"/><path class="st4" d="M620.6,22.2c2.7,0,5.3,2,5.3,5.5s-2.7,5.5-5.3,5.5c-2.7,0-5.3-2-5.3-5.5S618,22.2,620.6,22.2z M620.6,31.8 c2,0,3.8-1.4,3.8-4.2s-1.9-4.2-3.8-4.2c-2,0-3.8,1.4-3.8,4.2S618.7,31.8,620.6,31.8z M632.6,27.3H632c-1.2,0-2,0.6-2,2.2v3.6h-1.4 v-7.2h1.4v1.3c0.5-1.1,1.4-1.4,2.2-1.4h0.5v1.5L632.6,27.3z M635.5,22.1c0.6,0,1,0.5,1,1c0,0.6-0.4,1-1,1s-1-0.5-1-1 S635,22.1,635.5,22.1z M634.9,33.1v-7.2h1.4v7.2H634.9z M640.2,33.1c0.1,1,0.9,1.8,2,1.8c1.5,0,2.2-0.8,2.2-2.3v-1 c-0.3,0.7-1.1,1.2-2.2,1.2c-1.9,0-3.3-1.5-3.3-3.5s1.3-3.5,3.3-3.5c1.1,0,1.9,0.4,2.2,1.1v-1h1.4v6.7c0,1.8-0.9,3.6-3.6,3.6 c-1.8,0-3.1-1.1-3.3-2.7L640.2,33.1L640.2,33.1z M644.5,29.2c0-1.4-0.8-2.3-2.1-2.3c-1.2,0-2.1,0.9-2.1,2.3s0.8,2.3,2.1,2.3 C643.6,31.6,644.5,30.6,644.5,29.2z M649.5,22.1c0.6,0,1,0.5,1,1c0,0.6-0.4,1-1,1s-1-0.5-1-1S649,22.1,649.5,22.1z M648.8,33.1 v-7.2h1.4v7.2H648.8z M654.8,33.1h-1.4v-7.2h1.4v1c0.5-0.9,1.4-1.2,2.2-1.2c1.7,0,2.6,1.2,2.6,2.8v4.6h-1.4v-4.3 c0-1-0.4-1.8-1.7-1.8c-1.1,0-1.7,0.9-1.7,2L654.8,33.1L654.8,33.1z M667.2,33.1h-1.4l5.1-10.6h1.4L667.2,33.1z M679,33.1V22.4h3.7 c2.7,0,5.1,1.8,5.1,5.3s-2.4,5.3-5.1,5.3H679z M682.6,31.6c2,0,3.6-1.3,3.6-4s-1.6-4-3.6-4h-2.2v8H682.6z M696.6,31.1 c-0.4,1.3-1.6,2.3-3.2,2.3c-1.9,0-3.6-1.4-3.6-3.9c0-2.3,1.6-3.8,3.4-3.8c2.2,0,3.5,1.5,3.5,3.8V30h-5.4c0,1.3,1,2.2,2.2,2.2 s1.8-0.6,2-1.5L696.6,31.1z M695.2,28.6c0-1-0.7-1.8-2-1.8c-1.2,0-1.9,0.9-2,1.8H695.2z M702.4,33.1H701l-2.9-7.2h1.6l2.1,5.6 l2.1-5.6h1.5L702.4,33.1L702.4,33.1z M713.4,31.1c-0.4,1.3-1.6,2.3-3.2,2.3c-1.9,0-3.6-1.4-3.6-3.9c0-2.3,1.6-3.8,3.4-3.8 c2.2,0,3.5,1.5,3.5,3.8V30h-5.4c0,1.3,1,2.2,2.2,2.2s1.8-0.6,2-1.5L713.4,31.1z M712,28.6c0-1-0.7-1.8-2-1.8c-1.2,0-1.9,0.9-2,1.8 H712z M716,33.1V22.2h1.4v10.9L716,33.1L716,33.1z M727.4,29.3c0,2.2-1.5,3.8-3.7,3.8s-3.7-1.6-3.7-3.8s1.5-3.8,3.7-3.8 C725.9,25.6,727.4,27.2,727.4,29.3z M725.9,29.3c0-1.7-1.1-2.6-2.2-2.6c-1.1,0-2.2,0.9-2.2,2.6s1.1,2.6,2.2,2.6 C724.8,32.1,725.9,31.1,725.9,29.3z M729.9,35.8V25.7h1.4v1.1c0.4-0.7,1.2-1.3,2.4-1.3c2.2,0,3.3,1.7,3.3,3.8s-1.2,3.8-3.4,3.8 c-1.1,0-1.9-0.5-2.3-1.2v3.8L729.9,35.8L729.9,35.8z M733.4,26.8c-1.3,0-2.1,1.1-2.1,2.5c0,1.5,0.9,2.5,2.1,2.5 c1.3,0,2.1-1.1,2.1-2.5C735.6,28.1,734.8,26.8,733.4,26.8z"/><path class="st5" d="M555.4,305h200.2v50H555.4V305z"/><path class="st4" d="M578.9,325c2.7,0,5.3,2,5.3,5.5c0,3.6-2.7,5.5-5.3,5.5c-2.7,0-5.3-2-5.3-5.5S576.3,325,578.9,325z M578.9,334.8c2,0,3.8-1.4,3.8-4.2s-1.9-4.2-3.8-4.2c-2,0-3.8,1.4-3.8,4.2S576.9,334.8,578.9,334.8z M590.9,330.2h-0.6 c-1.2,0-2,0.6-2,2.2v3.6h-1.4v-7.2h1.4v1.3c0.5-1.1,1.4-1.4,2.2-1.4h0.5L590.9,330.2L590.9,330.2L590.9,330.2z M593.8,325 c0.6,0,1,0.4,1,1s-0.4,1-1,1s-1-0.5-1-1S593.3,325,593.8,325z M593.1,336v-7.2h1.4v7.2H593.1z M598.5,336c0.1,1,0.9,1.8,2,1.8 c1.5,0,2.2-0.8,2.2-2.3v-1c-0.3,0.7-1.1,1.2-2.2,1.2c-1.9,0-3.3-1.5-3.3-3.5c0-1.9,1.3-3.5,3.3-3.5c1.1,0,1.9,0.4,2.2,1.1v-1h1.4 v6.7c0,1.8-0.9,3.6-3.6,3.6c-1.8,0-3.1-1.1-3.3-2.7L598.5,336L598.5,336z M602.8,332c0-1.4-0.8-2.3-2.1-2.3c-1.2,0-2.1,0.9-2.1,2.3 c0,1.4,0.8,2.3,2.1,2.3C601.9,334.2,602.8,333.5,602.8,332z M607.8,325c0.6,0,1,0.4,1,1s-0.4,1-1,1s-1-0.5-1-1S607.2,325,607.8,325 z M607.1,336v-7.2h1.4v7.2H607.1z M613.1,336h-1.4v-7.2h1.4v1c0.5-0.9,1.4-1.2,2.2-1.2c1.7,0,2.6,1.2,2.6,2.9v4.6h-1.4v-4.3 c0-1-0.4-1.8-1.7-1.8c-1.1,0-1.7,0.9-1.7,2L613.1,336L613.1,336z M625.5,336h-1.4l5.1-10.6h1.4L625.5,336z M642.7,328.2 c-0.1-0.8-0.8-1.8-2.2-1.8c-1.2,0-2.1,0.8-2.1,1.8c0,0.8,0.5,1.4,1.4,1.5l1.6,0.3c1.8,0.4,2.8,1.5,2.8,3c0,1.6-1.4,3.1-3.7,3.1 c-2.6,0-3.8-1.6-4-3.2l1.4-0.4c0.1,1.2,0.9,2.3,2.5,2.3c1.5,0,2.2-0.8,2.2-1.7c0-0.8-0.5-1.4-1.6-1.6l-1.5-0.3 c-1.5-0.3-2.6-1.3-2.6-2.9c0-1.7,1.5-3.2,3.5-3.2c2.4,0,3.4,1.5,3.6,2.6L642.7,328.2L642.7,328.2z M653.4,332.2 c0,2.2-1.5,3.8-3.7,3.8s-3.7-1.6-3.7-3.8s1.5-3.8,3.7-3.8S653.4,330.2,653.4,332.2z M651.9,332.2c0-1.7-1.1-2.6-2.2-2.6 c-1.1,0-2.2,0.9-2.2,2.6s1,2.6,2.2,2.6C650.9,334.9,651.9,334,651.9,332.2z M655.9,336v-7.2h1.3v1c0.5-0.8,1.4-1.2,2.2-1.2 c0.9,0,1.8,0.4,2.2,1.4c0.6-1,1.5-1.4,2.4-1.4c1.3,0,2.5,0.9,2.5,2.7v4.7h-1.4v-4.5c0-0.9-0.5-1.6-1.5-1.6s-1.7,0.8-1.7,1.8v4.4 h-1.4v-4.5c0-0.9-0.4-1.6-1.5-1.6c-1,0-1.7,0.8-1.7,1.8v4.3L655.9,336L655.9,336z M675.8,333.8c-0.4,1.3-1.6,2.3-3.2,2.3 c-1.9,0-3.6-1.4-3.6-3.9c0-2.3,1.6-3.8,3.4-3.8c2.2,0,3.5,1.5,3.5,3.8v0.4h-5.4c0,1.3,1,2.2,2.2,2.2s1.8-0.6,2-1.5L675.8,333.8z M674.4,331.5c0-1-0.7-1.8-2-1.8c-1.2,0-1.9,0.9-2,1.8H674.4z M683.1,336v-10.7h6.5v1.4h-5v3.4h4.5v1.4h-4.5v4.5L683.1,336 L683.1,336z M697.7,333.8c-0.4,1.3-1.6,2.3-3.2,2.3c-1.9,0-3.6-1.4-3.6-3.9c0-2.3,1.6-3.8,3.4-3.8c2.2,0,3.5,1.5,3.5,3.8v0.4h-5.4 c0,1.3,1,2.2,2.2,2.2s1.8-0.6,2-1.5L697.7,333.8z M696.3,331.5c0-1-0.7-1.8-2-1.8c-1.2,0-1.9,0.9-2,1.8H696.3z M702,331.8l1.9-0.3 c0.4-0.1,0.6-0.3,0.6-0.5c0-0.7-0.5-1.3-1.6-1.3c-1,0-1.5,0.6-1.6,1.5l-1.4-0.3c0.2-1.4,1.4-2.3,3-2.3c2.2,0,3,1.2,3,2.6v3.6 c0,0.6,0.1,1,0.1,1.2h-1.4c0-0.2-0.1-0.5-0.1-1c-0.3,0.5-1,1.2-2.3,1.2c-1.5,0-2.4-1-2.4-2.2C699.8,332.7,700.8,332,702,331.8 L702,331.8z M704.5,332.8v-0.3l-2.2,0.3c-0.6,0.1-1.1,0.4-1.1,1.1c0,0.5,0.4,1,1.2,1C703.6,335,704.5,334.5,704.5,332.8z M710.8,328.7h1.6v1.3h-1.6v3.8c0,0.7,0.3,1,1,1c0.2,0,0.4,0,0.6-0.1v1.2c-0.1,0-0.5,0.1-1,0.1c-1.2,0-2-0.8-2-2.1v-4H708v-1.3h0.4 c0.8,0,1.1-0.5,1.1-1.1v-1.2h1.3L710.8,328.7L710.8,328.7z M717.6,336.2c-1.7,0-2.7-1.3-2.7-2.9v-4.5h1.4v4.3c0,1,0.4,1.9,1.6,1.9 c1.1,0,1.7-0.8,1.7-1.8v-4.4h1.4v5.9c0,0.6,0,1.1,0.1,1.3h-1.3c0-0.2-0.1-0.6-0.1-0.9C719.3,335.8,718.4,336.2,717.6,336.2 L717.6,336.2z M728.2,330.2h-0.6c-1.2,0-2,0.6-2,2.2v3.6h-1.4v-7.2h1.4v1.3c0.5-1.1,1.4-1.4,2.2-1.4h0.5L728.2,330.2L728.2,330.2 L728.2,330.2z M736.7,333.8c-0.4,1.3-1.6,2.3-3.2,2.3c-1.9,0-3.6-1.4-3.6-3.9c0-2.3,1.6-3.8,3.4-3.8c2.2,0,3.5,1.5,3.5,3.8v0.4 h-5.4c0,1.3,1,2.2,2.2,2.2s1.8-0.6,2-1.5L736.7,333.8z M735.2,331.5c0-1-0.7-1.8-2-1.8c-1.2,0-1.9,0.9-2,1.8H735.2z"/><path class="st6" d="M109.4,163.4h160.2v50H109.4V163.4z"/><path class="st4" d="M174.6,194.4v-8.3l-3.6,8.3h-1.3l-3.6-8.3v8.3h-1.5v-10.6h2l3.7,8.7l3.8-8.7h2v10.6H174.6L174.6,194.4z M181,190.4l1.9-0.3c0.4-0.1,0.6-0.3,0.6-0.5c0-0.7-0.5-1.3-1.6-1.3c-1,0-1.5,0.6-1.6,1.5l-1.4-0.3c0.2-1.4,1.4-2.3,3-2.3 c2.2,0,3,1.2,3,2.6v3.6c0,0.6,0.1,1,0.1,1.2h-1.4c0-0.2-0.1-0.5-0.1-1c-0.3,0.5-1,1.2-2.3,1.2c-1.5,0-2.4-1-2.4-2.2 C178.8,191.3,179.8,190.6,181,190.4z M183.5,191.4v-0.3l-2.2,0.3c-0.6,0.1-1.1,0.4-1.1,1.1c0,0.5,0.4,1,1.2,1 C182.6,193.6,183.5,192.9,183.5,191.4z M188.5,192.2c0.1,0.8,0.7,1.3,1.7,1.3c0.8,0,1.2-0.4,1.2-1c0-0.4-0.3-0.8-0.9-0.9l-1.2-0.3 c-1.1-0.2-1.8-1-1.8-2c0-1.2,1.2-2.3,2.6-2.3c2,0,2.6,1.3,2.7,1.9l-1.2,0.5c-0.1-0.4-0.4-1.2-1.5-1.2c-0.7,0-1.2,0.5-1.2,1 c0,0.4,0.3,0.8,0.8,0.9l1.2,0.3c1.3,0.3,2,1.1,2,2.1s-0.9,2.2-2.6,2.2c-2,0-2.8-1.3-2.9-2.1L188.5,192.2L188.5,192.2z M197.3,187.3 h1.6v1.3h-1.6v3.8c0,0.7,0.3,1,1,1c0.2,0,0.4,0,0.6-0.1v1.2c-0.1,0-0.5,0.1-1,0.1c-1.2,0-2-0.8-2-2.1v-4h-1.4v-1.3h0.4 c0.8,0,1.1-0.5,1.1-1.1v-1.2h1.3V187.3L197.3,187.3z M207.7,192.4c-0.4,1.3-1.6,2.3-3.2,2.3c-1.9,0-3.6-1.4-3.6-3.9 c0-2.3,1.6-3.8,3.4-3.8c2.2,0,3.5,1.5,3.5,3.8v0.5h-5.4c0,1.3,1,2.2,2.2,2.2s1.8-0.6,2-1.5L207.7,192.4z M206.3,190.2 c0-1-0.7-1.8-2-1.8c-1.2,0-1.9,0.9-2,1.8H206.3z M214.3,188.8h-0.6c-1.2,0-2,0.6-2,2.2v3.6h-1.4v-7.2h1.4v1.3 c0.5-1.1,1.4-1.4,2.2-1.4h0.5v1.5H214.3z"/><path class="st0" d="M189.5,256.7v-23.5 M200.4,247.9l-10.9,10.9l-10.9-10.9"/><path class="st6" d="M382.9,83.2h160.2v50H382.9V83.2z"/><path class="st4" d="M412.8,103.4c2.7,0,5.3,2,5.3,5.5s-2.7,5.5-5.3,5.5c-2.7,0-5.3-2-5.3-5.5S410.1,103.4,412.8,103.4z M412.8,113.1c2,0,3.8-1.4,3.8-4.2c0-2.8-1.9-4.2-3.8-4.2c-2,0-3.8,1.4-3.8,4.2S410.8,113.1,412.8,113.1z M424.8,108.4h-0.6 c-1.2,0-2,0.6-2,2.2v3.6h-1.4v-7.2h1.4v1.3c0.5-1.1,1.4-1.4,2.2-1.4h0.5L424.8,108.4L424.8,108.4z M427.7,103.3c0.6,0,1,0.5,1,1 c0,0.6-0.4,1-1,1s-1-0.5-1-1C426.7,103.7,427.1,103.3,427.7,103.3z M427,114.2V107h1.4v7.2H427z M432.4,114.3c0.1,1,0.9,1.8,2,1.8 c1.5,0,2.2-0.8,2.2-2.3v-1c-0.3,0.7-1.1,1.2-2.2,1.2c-1.9,0-3.3-1.5-3.3-3.5s1.3-3.5,3.3-3.5c1.1,0,1.9,0.4,2.2,1.1v-1h1.4v6.7 c0,1.8-0.9,3.6-3.6,3.6c-1.8,0-3.1-1.1-3.3-2.7C431.1,114.7,432.4,114.3,432.4,114.3z M436.6,110.4c0-1.4-0.8-2.3-2.1-2.3 c-1.2,0-2.1,0.9-2.1,2.3s0.8,2.3,2.1,2.3C435.8,112.7,436.6,111.8,436.6,110.4z M441.7,103.3c0.6,0,1,0.5,1,1c0,0.6-0.4,1-1,1 s-1-0.5-1-1C440.7,103.7,441.1,103.3,441.7,103.3z M441,114.2V107h1.4v7.2H441z M446.9,114.2h-1.4V107h1.4v1 c0.5-0.9,1.4-1.2,2.2-1.2c1.7,0,2.6,1.2,2.6,2.8v4.6h-1.4v-4.3c0-1-0.4-1.8-1.7-1.8c-1.1,0-1.7,0.9-1.7,2L446.9,114.2L446.9,114.2z M459.4,114.2H458l5.1-10.6h1.4L459.4,114.2z M481.1,114.2v-8.3l-3.6,8.3h-1.3l-3.6-8.3v8.3h-1.5v-10.6h2l3.7,8.7l3.8-8.7h2v10.6 H481.1z M487.6,110.1l1.9-0.3c0.4-0.1,0.6-0.3,0.6-0.5c0-0.7-0.5-1.3-1.6-1.3c-1,0-1.5,0.6-1.6,1.5l-1.4-0.3c0.2-1.4,1.4-2.3,3-2.3 c2.2,0,3,1.2,3,2.6v3.6c0,0.6,0.1,1,0.1,1.2h-1.4c0-0.2-0.1-0.5-0.1-1c-0.3,0.5-1,1.2-2.3,1.2c-1.5,0-2.4-1-2.4-2.2 C485.4,110.9,486.3,110.3,487.6,110.1L487.6,110.1z M490.1,111.1v-0.3l-2.2,0.3c-0.6,0.1-1.1,0.4-1.1,1.1c0,0.5,0.4,1,1.2,1 C489.1,113.3,490.1,112.7,490.1,111.1z M495,111.9c0.1,0.8,0.7,1.3,1.7,1.3c0.8,0,1.2-0.4,1.2-1c0-0.4-0.3-0.8-0.9-0.9l-1.2-0.3 c-1.1-0.2-1.8-1-1.8-2c0-1.2,1.2-2.3,2.6-2.3c2,0,2.6,1.3,2.7,1.9l-1.2,0.5c-0.1-0.4-0.4-1.2-1.5-1.2c-0.7,0-1.2,0.5-1.2,1 c0,0.4,0.3,0.8,0.8,0.9l1.2,0.3c1.3,0.3,2,1.1,2,2.1s-0.9,2.2-2.6,2.2c-2,0-2.8-1.3-2.9-2.1L495,111.9L495,111.9z M503.8,106.9h1.6 v1.3h-1.6v3.8c0,0.7,0.3,1,1,1c0.2,0,0.4,0,0.6-0.1v1.2c-0.1,0-0.5,0.1-1,0.1c-1.2,0-2-0.8-2-2.1v-4H501v-1.3h0.4 c0.8,0,1.1-0.5,1.1-1.1v-1.2h1.3L503.8,106.9L503.8,106.9z M514.2,112.2c-0.4,1.3-1.6,2.3-3.2,2.3c-1.9,0-3.6-1.4-3.6-3.9 c0-2.3,1.6-3.8,3.4-3.8c2.2,0,3.5,1.5,3.5,3.8v0.5h-5.5c0,1.3,1,2.2,2.2,2.2s1.8-0.6,2-1.5L514.2,112.2L514.2,112.2z M512.8,109.9 c0-1-0.7-1.8-2-1.8c-1.2,0-1.9,0.9-2,1.8H512.8z M520.8,108.4h-0.6c-1.2,0-2,0.6-2,2.2v3.6h-1.4v-7.2h1.4v1.3 c0.5-1.1,1.4-1.4,2.2-1.4h0.5L520.8,108.4L520.8,108.4z"/><path class="st0" d="M463,176.4v-23.5 M473.9,167.7L463,178.4l-10.8-10.8 M734.6,261v23.5 M723.7,269.7l10.9-10.8l10.8,10.8 M734.6,95.4V71.9 M745.4,86.7l-10.8,10.9l-10.9-10.9"/></g></svg>